<svg width="24" height="24" viewBox="0 0 24 24" fill="none" xmlns="http://www.w3.org/2000/svg">
<g id="_Instagram">
<path id="Vector" d="M23.9328 7.05204C23.8752 5.77422 23.6687 4.89992 23.3759 4.13611C23.0686 3.34828 22.6605 2.67574 21.9932 2.01281C21.3259 1.34988 20.6585 0.931946 19.8712 0.629304C19.1078 0.331465 18.234 0.129704 16.957 0.0720576C15.6751 0.0144115 15.2671 0 12.012 0C8.75215 0 8.34407 0.0144115 7.06701 0.0720576C5.78996 0.129704 4.91618 0.336269 4.15283 0.629304C3.36067 0.93675 2.68854 1.34508 2.02601 2.01281C1.36347 2.68054 0.945791 3.34828 0.64333 4.13611C0.350471 4.89992 0.14403 5.77422 0.0864187 7.05204C0.0288072 8.33467 0.0144043 8.743 0.0144043 12C0.0144043 15.2618 0.0288072 15.6701 0.0864187 16.948C0.14403 18.2258 0.350471 19.1001 0.64333 19.8639C0.950592 20.6517 1.35867 21.3243 2.02601 21.9872C2.68854 22.6549 3.36067 23.0681 4.14803 23.3707C4.91138 23.6685 5.78516 23.8703 7.06221 23.9279C8.34407 23.9856 8.75215 24 12.0072 24C15.2671 24 15.6751 23.9856 16.9522 23.9279C18.2292 23.8703 19.103 23.6637 19.8664 23.3707C20.6537 23.0633 21.3259 22.6549 21.9884 21.9872C22.6509 21.3195 23.0686 20.6517 23.3711 19.8639C23.6687 19.1001 23.8704 18.2258 23.928 16.948C23.9856 15.6653 24 15.257 24 12C24 8.743 23.9904 8.32986 23.9328 7.05204ZM21.7772 16.8519C21.7243 18.024 21.5275 18.6629 21.3643 19.0809C21.1482 19.6381 20.8842 20.0416 20.4617 20.4644C20.0392 20.8871 19.6407 21.1417 19.079 21.3675C18.6565 21.5308 18.018 21.7278 16.8514 21.7806C15.5887 21.8383 15.2094 21.8527 12.0024 21.8527C8.79536 21.8527 8.41608 21.8383 7.15343 21.7806C5.982 21.7278 5.34347 21.5308 4.92579 21.3675C4.36888 21.1513 3.96559 20.8871 3.54311 20.4644C3.12063 20.0416 2.86617 19.6429 2.64053 19.0809C2.4773 18.6581 2.28046 18.0192 2.22765 16.8519C2.17004 15.5885 2.15563 15.209 2.15563 12C2.15563 8.79103 2.17004 8.41153 2.22765 7.14812C2.28046 5.97598 2.4773 5.33707 2.64053 4.91914C2.85657 4.36189 3.12063 3.95837 3.54311 3.53563C3.96559 3.11289 4.36407 2.85829 4.92579 2.63251C5.34827 2.46918 5.9868 2.27222 7.15343 2.21938C8.41608 2.16173 8.79536 2.14732 12.0024 2.14732C15.2094 2.14732 15.5887 2.16173 16.8514 2.21938C18.0228 2.27222 18.6613 2.46918 19.079 2.63251C19.6359 2.84868 20.0392 3.11289 20.4617 3.53563C20.8842 3.95837 21.1386 4.35709 21.3643 4.91914C21.5275 5.34187 21.7243 5.98079 21.7772 7.14812C21.8348 8.41153 21.8492 8.79103 21.8492 12C21.8492 15.209 21.83 15.5885 21.7772 16.8519Z" fill="url(#paint0_linear_718_21)"/>
<path id="Vector_2" d="M12.0023 5.83179C8.59364 5.83179 5.83789 8.594 5.83789 11.9999C5.83789 15.4107 8.59844 18.1681 12.0023 18.1681C15.4062 18.1681 18.1668 15.401 18.1668 11.9999C18.1668 8.58919 15.411 5.83179 12.0023 5.83179ZM12.0023 16.0015C9.79388 16.0015 8.00312 14.2097 8.00312 11.9999C8.00312 9.79015 9.79388 7.99832 12.0023 7.99832C14.2108 7.99832 16.0015 9.79015 16.0015 11.9999C16.0015 14.2097 14.2108 16.0015 12.0023 16.0015Z" fill="url(#paint1_linear_718_21)"/>
<path id="Vector_3" d="M18.4068 7.03294C19.2023 7.03294 19.8471 6.38771 19.8471 5.59179C19.8471 4.79586 19.2023 4.15063 18.4068 4.15063C17.6114 4.15063 16.9666 4.79586 16.9666 5.59179C16.9666 6.38771 17.6114 7.03294 18.4068 7.03294Z" fill="#BC30A0"/>
</g>
<defs>
<linearGradient id="paint0_linear_718_21" x1="20.2955" y1="1.8352" x2="2.93304" y2="23.1076" gradientUnits="userSpaceOnUse">
<stop stop-color="#AE3DAE"/>
<stop offset="0.0468721" stop-color="#B23BA6"/>
<stop offset="0.1216" stop-color="#BD368E"/>
<stop offset="0.2148" stop-color="#CE2E69"/>
<stop offset="0.3216" stop-color="#E62335"/>
<stop offset="0.418" stop-color="#FF1800"/>
</linearGradient>
<linearGradient id="paint1_linear_718_21" x1="14.9422" y1="7.05278" x2="8.63481" y2="17.6513" gradientUnits="userSpaceOnUse">
<stop stop-color="#E12F6A"/>
<stop offset="0.1705" stop-color="#EA3751"/>
<stop offset="0.3563" stop-color="#F13D3E"/>
<stop offset="0.5467" stop-color="#F64133"/>
<stop offset="0.7469" stop-color="#F7422F"/>
<stop offset="0.7946" stop-color="#F74C2F"/>
<stop offset="0.8743" stop-color="#F7652F"/>
<stop offset="0.9757" stop-color="#F78F2E"/>
<stop offset="1" stop-color="#F79A2E"/>
</linearGradient>
</defs>
</svg>
